<svg xmlns="http://www.w3.org/2000/svg" viewBox="0 0 480 560" role="img" aria-label="Portrait illustration of Henry Patterson">
  <defs>
    <linearGradient id="g" x1="0" x2="1" y1="0" y2="1">
      <stop offset="0%" stop-color="#FDE7B0"/>
      <stop offset="100%" stop-color="#F59E0B"/>
    </linearGradient>
    <filter id="shadow" x="-20%" y="-20%" width="140%" height="140%">
      <feDropShadow dx="0" dy="8" stdDeviation="10" flood-color="#0f172a" flood-opacity="0.18"/>
    </filter>
  </defs>
  <rect width="480" height="560" fill="url(#g)"/>
  <circle cx="180" cy="96" r="38" fill="#ffffff" opacity="0.18"/>
  <circle cx="410" cy="126" r="52" fill="#ffffff" opacity="0.14"/>
  <path d="M0 430 C80 370, 150 360, 220 390 S360 460, 480 390 V560 H0 Z" fill="#ffffff" opacity="0.2"/>
  <g filter="url(#shadow)">
    <ellipse cx="240" cy="446" rx="132" ry="98" fill="#F59E0B"/>
    <rect x="184" y="276" width="112" height="120" rx="48" fill="#F6D0B1"/>
    <ellipse cx="240" cy="214" rx="108" ry="122" fill="#F6D0B1"/>
    <path d="M140 206 C150 104, 332 92, 344 212 C334 160, 296 126, 240 126 C186 126, 146 158, 140 206Z" fill="#2E2017"/>
    <path d="M144 196 C154 70, 326 74, 336 202 C314 148, 280 114, 236 110 C194 106, 162 132, 144 196Z" fill="#2E2017"/>
    <ellipse cx="196" cy="222" rx="12" ry="8" fill="#263238"/>
    <ellipse cx="284" cy="222" rx="12" ry="8" fill="#263238"/>
    <path d="M222 266 C234 276, 246 276, 258 266" fill="none" stroke="#9A5A3C" stroke-width="5" stroke-linecap="round"/>
    <path d="M204 304 C228 324, 252 324, 276 304" fill="none" stroke="#8B3F2A" stroke-width="6" stroke-linecap="round"/>
    <path d="M152 214 C170 190, 192 180, 210 182" fill="none" stroke="#2E2017" stroke-width="8" stroke-linecap="round"/>
    <path d="M270 182 C290 182, 312 192, 328 214" fill="none" stroke="#2E2017" stroke-width="8" stroke-linecap="round"/>
  </g>
  <rect x="22" y="22" width="110" height="36" rx="18" fill="#ffffff" opacity="0.9"/>
  <text x="77" y="45" font-size="22" font-family="Inter, Arial, sans-serif" text-anchor="middle" fill="#7A4100" font-weight="700">HP</text>
  <text x="240" y="518" font-size="24" font-family="Inter, Arial, sans-serif" text-anchor="middle" fill="#ffffff" font-weight="700">Business</text>
</svg>